# xmcd
#
# Track frame offsets:
#	150
#	36147
#	59252
#	89215
#	109907
#	137840
#	162740
#	184420
#	218530
#	240437
#
# Disc length: 3368 seconds
#
# Revision: 1
# Processed by: cddbd v1.5.1PL2 Copyright (c) Steve Scherf et al.
# Submitted via: audiograbber 1.83.01
#
DISCID=930d260a
DTITLE=Steve Kuhn - Oceans In The Sky
DYEAR=1989
DGENRE=Jazz
TTITLE0=The Island
TTITLE1=Lotus Blossom
TTITLE2=La Plus Que Lente
TTITLE3=Do
TTITLE4=Oceans In The Sky
TTITLE5=Theme For Ernie
TTITLE6=Angela
TTITLE7=In Your Own Sweet Way
TTITLE8=Ulla
TTITLE9=The Music That Makes Me Dance
EXTD=
EXTT0=
EXTT1=
EXTT2=
EXTT3=
EXTT4=
EXTT5=
EXTT6=
EXTT7=
EXTT8=
EXTT9=
PLAYORDER=
